<mxfile host="app.diagrams.net" agent="Mozilla/5.0 (Windows NT 10.0; Win64; x64) AppleWebKit/537.36 (KHTML, like Gecko) Chrome/132.0.0.0 Safari/537.36" version="26.0.2">
  <diagram name="Page-1" id="eq0wE8SwEvedX5aSt8SF">
    <mxGraphModel dx="954" dy="558" grid="1" gridSize="10" guides="1" tooltips="1" connect="1" arrows="1" fold="1" page="1" pageScale="1" pageWidth="850" pageHeight="1100" background="none" math="0" shadow="0">
      <root>
        <mxCell id="0" />
        <mxCell id="1" parent="0" />
        <mxCell id="pHGOKvjHhklqfPr7pu8u-2" value="User Interface" style="rounded=1;whiteSpace=wrap;html=1;rotation=90;horizontal=0;verticalAlign=top;fontStyle=1;fontSize=14;fontFamily=Comic Sans MS;" parent="1" vertex="1">
          <mxGeometry x="676" y="190" width="170" height="110" as="geometry" />
        </mxCell>
        <mxCell id="pHGOKvjHhklqfPr7pu8u-3" value="Component1" style="rounded=1;whiteSpace=wrap;html=1;" parent="1" vertex="1">
          <mxGeometry x="716" y="200" width="90" height="30" as="geometry" />
        </mxCell>
        <mxCell id="JyaKooP-tWVFvjsa9lRd-21" style="edgeStyle=orthogonalEdgeStyle;rounded=0;orthogonalLoop=1;jettySize=auto;html=1;exitX=0;exitY=0;exitDx=0;exitDy=0;entryX=1;entryY=0;entryDx=0;entryDy=0;fontColor=#FFFFFF;strokeColor=#FFFFFF;" parent="1" source="pHGOKvjHhklqfPr7pu8u-4" target="pHGOKvjHhklqfPr7pu8u-7" edge="1">
          <mxGeometry relative="1" as="geometry">
            <Array as="points">
              <mxPoint x="630" y="240" />
              <mxPoint x="630" y="240" />
            </Array>
          </mxGeometry>
        </mxCell>
        <mxCell id="JyaKooP-tWVFvjsa9lRd-22" value="Data Request&lt;div&gt;Display params&lt;/div&gt;" style="edgeLabel;html=1;align=center;verticalAlign=middle;resizable=0;points=[];" parent="JyaKooP-tWVFvjsa9lRd-21" vertex="1" connectable="0">
          <mxGeometry x="0.01" y="1" relative="1" as="geometry">
            <mxPoint x="1" as="offset" />
          </mxGeometry>
        </mxCell>
        <mxCell id="pHGOKvjHhklqfPr7pu8u-4" value="Component2" style="rounded=1;whiteSpace=wrap;html=1;" parent="1" vertex="1">
          <mxGeometry x="716" y="240" width="90" height="30" as="geometry" />
        </mxCell>
        <mxCell id="pHGOKvjHhklqfPr7pu8u-5" value="Component3" style="rounded=1;whiteSpace=wrap;html=1;" parent="1" vertex="1">
          <mxGeometry x="716" y="280" width="90" height="30" as="geometry" />
        </mxCell>
        <mxCell id="pHGOKvjHhklqfPr7pu8u-6" value="getDataComp1" style="rounded=1;whiteSpace=wrap;html=1;" parent="1" vertex="1">
          <mxGeometry x="490" y="200" width="90" height="30" as="geometry" />
        </mxCell>
        <mxCell id="JyaKooP-tWVFvjsa9lRd-14" style="edgeStyle=orthogonalEdgeStyle;rounded=0;orthogonalLoop=1;jettySize=auto;html=1;exitX=0;exitY=1;exitDx=0;exitDy=0;entryX=1;entryY=1;entryDx=0;entryDy=0;fontColor=#FFFFFF;strokeColor=#FFFFFF;" parent="1" source="pHGOKvjHhklqfPr7pu8u-7" target="pHGOKvjHhklqfPr7pu8u-9" edge="1">
          <mxGeometry relative="1" as="geometry">
            <mxPoint x="460" y="270" as="targetPoint" />
            <Array as="points">
              <mxPoint x="440" y="270" />
              <mxPoint x="440" y="270" />
            </Array>
          </mxGeometry>
        </mxCell>
        <mxCell id="JyaKooP-tWVFvjsa9lRd-16" value="Fetch Params" style="edgeLabel;html=1;align=center;verticalAlign=middle;resizable=0;points=[];" parent="JyaKooP-tWVFvjsa9lRd-14" vertex="1" connectable="0">
          <mxGeometry x="-0.0375" y="-2" relative="1" as="geometry">
            <mxPoint x="1" as="offset" />
          </mxGeometry>
        </mxCell>
        <mxCell id="JyaKooP-tWVFvjsa9lRd-23" style="edgeStyle=orthogonalEdgeStyle;rounded=0;orthogonalLoop=1;jettySize=auto;html=1;exitX=1;exitY=1;exitDx=0;exitDy=0;entryX=0;entryY=1;entryDx=0;entryDy=0;fontColor=#FFFFFF;strokeColor=#FFFFFF;" parent="1" source="pHGOKvjHhklqfPr7pu8u-7" target="pHGOKvjHhklqfPr7pu8u-4" edge="1">
          <mxGeometry relative="1" as="geometry">
            <Array as="points">
              <mxPoint x="630" y="270" />
              <mxPoint x="630" y="270" />
            </Array>
          </mxGeometry>
        </mxCell>
        <mxCell id="JyaKooP-tWVFvjsa9lRd-26" value="Analyzed Data&lt;div&gt;Data Structures&lt;/div&gt;" style="edgeLabel;html=1;align=center;verticalAlign=middle;resizable=0;points=[];" parent="JyaKooP-tWVFvjsa9lRd-23" vertex="1" connectable="0">
          <mxGeometry x="-0.17" y="-1" relative="1" as="geometry">
            <mxPoint as="offset" />
          </mxGeometry>
        </mxCell>
        <mxCell id="pHGOKvjHhklqfPr7pu8u-7" value="getDataComp2" style="rounded=1;whiteSpace=wrap;html=1;" parent="1" vertex="1">
          <mxGeometry x="490" y="240" width="90" height="30" as="geometry" />
        </mxCell>
        <mxCell id="pHGOKvjHhklqfPr7pu8u-8" value="getDataComp3" style="rounded=1;whiteSpace=wrap;html=1;" parent="1" vertex="1">
          <mxGeometry x="490" y="280" width="90" height="30" as="geometry" />
        </mxCell>
        <mxCell id="pHGOKvjHhklqfPr7pu8u-9" value="fetchData" style="rounded=1;whiteSpace=wrap;html=1;" parent="1" vertex="1">
          <mxGeometry x="303" y="240" width="90" height="30" as="geometry" />
        </mxCell>
        <mxCell id="pHGOKvjHhklqfPr7pu8u-11" value="Knesset API" style="rounded=1;whiteSpace=wrap;html=1;rotation=90;horizontal=0;verticalAlign=top;fontStyle=1;fontSize=14;fontFamily=Comic Sans MS;" parent="1" vertex="1">
          <mxGeometry x="55" y="195" width="180" height="110" as="geometry" />
        </mxCell>
        <mxCell id="pHGOKvjHhklqfPr7pu8u-12" value="Knesset.gov.il" style="rounded=1;whiteSpace=wrap;html=1;" parent="1" vertex="1">
          <mxGeometry x="100" y="190" width="90" height="30" as="geometry" />
        </mxCell>
        <mxCell id="pHGOKvjHhklqfPr7pu8u-13" value="OData" style="rounded=1;whiteSpace=wrap;html=1;" parent="1" vertex="1">
          <mxGeometry x="100" y="227" width="90" height="30" as="geometry" />
        </mxCell>
        <mxCell id="pHGOKvjHhklqfPr7pu8u-14" value="OpenKnesset" style="rounded=1;whiteSpace=wrap;html=1;" parent="1" vertex="1">
          <mxGeometry x="100" y="264" width="90" height="30" as="geometry" />
        </mxCell>
        <mxCell id="pHGOKvjHhklqfPr7pu8u-15" value="בטא-מחוקקים" style="rounded=1;whiteSpace=wrap;html=1;" parent="1" vertex="1">
          <mxGeometry x="100" y="300" width="90" height="30" as="geometry" />
        </mxCell>
        <mxCell id="pHGOKvjHhklqfPr7pu8u-17" value="&lt;ul&gt;&lt;li&gt;Display Data&lt;/li&gt;&lt;li&gt;Determine App State&lt;/li&gt;&lt;li&gt;Design&lt;/li&gt;&lt;/ul&gt;" style="html=1;labelBackgroundColor=none;whiteSpace=wrap;fillColor=#ffe6cc;strokeColor=#d79b00;fontSize=13;fontFamily=Comic Sans MS;rounded=1;glass=0;shadow=0;fontStyle=0;align=left;" parent="1" vertex="1">
          <mxGeometry x="696" y="341" width="125" height="70" as="geometry" />
        </mxCell>
        <mxCell id="pHGOKvjHhklqfPr7pu8u-18" value="&lt;ul style=&quot;text-align: left;&quot;&gt;&lt;li&gt;Analyze and filter Data&lt;/li&gt;&lt;li&gt;pack in Data Structures&lt;/li&gt;&lt;/ul&gt;" style="html=1;labelBackgroundColor=none;whiteSpace=wrap;fillColor=#ffe6cc;strokeColor=#d79b00;fontSize=13;fontFamily=Comic Sans MS;rounded=1;glass=0;shadow=0;" parent="1" vertex="1">
          <mxGeometry x="473" y="341" width="120" height="70" as="geometry" />
        </mxCell>
        <mxCell id="pHGOKvjHhklqfPr7pu8u-19" value="Data Analyzing&amp;nbsp;&lt;div&gt;Functions&lt;/div&gt;" style="text;html=1;align=center;verticalAlign=middle;resizable=0;points=[];autosize=1;strokeColor=none;fillColor=none;fontSize=14;fontStyle=1;fontFamily=Comic Sans MS;horizontal=1;fontColor=#FFFFFF;" parent="1" vertex="1">
          <mxGeometry x="473" y="150" width="120" height="50" as="geometry" />
        </mxCell>
        <mxCell id="pHGOKvjHhklqfPr7pu8u-20" value="Data Fetching&amp;nbsp;&lt;div&gt;Function&lt;/div&gt;" style="text;html=1;align=center;verticalAlign=middle;resizable=0;points=[];autosize=1;strokeColor=none;fillColor=none;fontSize=14;fontStyle=1;fontFamily=Comic Sans MS;horizontal=1;fontColor=#FFFFFF;" parent="1" vertex="1">
          <mxGeometry x="288" y="150" width="120" height="50" as="geometry" />
        </mxCell>
        <mxCell id="JyaKooP-tWVFvjsa9lRd-2" value="&lt;ul style=&quot;text-align: left;&quot;&gt;&lt;li&gt;fetch Data according to Params&lt;/li&gt;&lt;/ul&gt;" style="html=1;labelBackgroundColor=none;whiteSpace=wrap;fillColor=#ffe6cc;strokeColor=#d79b00;fontSize=13;fontFamily=Comic Sans MS;rounded=1;glass=0;shadow=0;" parent="1" vertex="1">
          <mxGeometry x="283" y="341" width="120" height="70" as="geometry" />
        </mxCell>
        <mxCell id="JyaKooP-tWVFvjsa9lRd-4" value="" style="endArrow=classic;html=1;rounded=0;exitX=0.439;exitY=0.014;exitDx=0;exitDy=0;entryX=0;entryY=0;entryDx=0;entryDy=0;exitPerimeter=0;fontColor=#FFFFFF;strokeColor=#FFFFFF;" parent="1" source="pHGOKvjHhklqfPr7pu8u-11" target="pHGOKvjHhklqfPr7pu8u-9" edge="1">
          <mxGeometry width="50" height="50" relative="1" as="geometry">
            <mxPoint x="250" y="240" as="sourcePoint" />
            <mxPoint x="300" y="190" as="targetPoint" />
          </mxGeometry>
        </mxCell>
        <mxCell id="JyaKooP-tWVFvjsa9lRd-6" value="Data" style="edgeLabel;html=1;align=center;verticalAlign=middle;resizable=0;points=[];" parent="JyaKooP-tWVFvjsa9lRd-4" vertex="1" connectable="0">
          <mxGeometry x="-0.0482" y="-1" relative="1" as="geometry">
            <mxPoint as="offset" />
          </mxGeometry>
        </mxCell>
        <mxCell id="JyaKooP-tWVFvjsa9lRd-9" style="edgeStyle=orthogonalEdgeStyle;rounded=0;orthogonalLoop=1;jettySize=auto;html=1;exitX=0;exitY=0.75;exitDx=0;exitDy=0;entryX=0.567;entryY=-0.009;entryDx=0;entryDy=0;entryPerimeter=0;fontColor=#FFFFFF;strokeColor=#FFFFFF;" parent="1" source="pHGOKvjHhklqfPr7pu8u-9" target="pHGOKvjHhklqfPr7pu8u-11" edge="1">
          <mxGeometry relative="1" as="geometry" />
        </mxCell>
        <mxCell id="JyaKooP-tWVFvjsa9lRd-10" value="GET\POST" style="edgeLabel;html=1;align=center;verticalAlign=middle;resizable=0;points=[];" parent="JyaKooP-tWVFvjsa9lRd-9" vertex="1" connectable="0">
          <mxGeometry x="0.0775" relative="1" as="geometry">
            <mxPoint as="offset" />
          </mxGeometry>
        </mxCell>
        <mxCell id="JyaKooP-tWVFvjsa9lRd-11" value="" style="endArrow=classic;html=1;rounded=0;exitX=1;exitY=0;exitDx=0;exitDy=0;entryX=0;entryY=0;entryDx=0;entryDy=0;fontColor=#FFFFFF;strokeColor=#FFFFFF;" parent="1" source="pHGOKvjHhklqfPr7pu8u-9" target="pHGOKvjHhklqfPr7pu8u-7" edge="1">
          <mxGeometry width="50" height="50" relative="1" as="geometry">
            <mxPoint x="430" y="290" as="sourcePoint" />
            <mxPoint x="480" y="240" as="targetPoint" />
          </mxGeometry>
        </mxCell>
        <mxCell id="JyaKooP-tWVFvjsa9lRd-13" value="Data" style="edgeLabel;html=1;align=center;verticalAlign=middle;resizable=0;points=[];" parent="JyaKooP-tWVFvjsa9lRd-11" vertex="1" connectable="0">
          <mxGeometry x="-0.1625" y="1" relative="1" as="geometry">
            <mxPoint as="offset" />
          </mxGeometry>
        </mxCell>
      </root>
    </mxGraphModel>
  </diagram>
</mxfile>
